<?xml version="1.0" standalone="no"?>
<!DOCTYPE svg PUBLIC "-//W3C//DTD SVG 1.1//EN" "http://www.w3.org/Graphics/SVG/1.1/DTD/svg11.dtd">
<svg width="100%" height="100%" viewBox="0 0 186 65" version="1.1" xmlns="http://www.w3.org/2000/svg" xmlns:xlink="http://www.w3.org/1999/xlink" xml:space="preserve" style="fill-rule:evenodd;clip-rule:evenodd;stroke-linecap:round;stroke-linejoin:round;stroke-miterlimit:1.41421;">
    <path d="M179.12,39.2301L4.45712,39.2301L9.67841,11.782C10.7615,6.08806 16.2554,1.47224 21.9493,1.47224L175.992,1.47224C181.686,1.47224 185.424,6.08806 184.341,11.782L179.12,39.2301Z" style="fill:rgb(21,107,207);"/>
    <path d="M179.12,39.2301L176.322,53.9396C175.239,59.6335 169.745,64.2493 164.051,64.2493L10.0076,64.2493C4.3137,64.2493 0.575916,59.6335 1.65903,53.9396L4.45712,39.2301L179.12,39.2301Z" style="fill:white;"/>
    <path d="M179.12,39.2301L176.322,53.9396C175.239,59.6335 169.745,64.2493 164.051,64.2493L10.0076,64.2493C4.3137,64.2493 0.575916,59.6335 1.65903,53.9396L4.45712,39.2301L179.12,39.2301Z" style="fill:none;stroke-width:1px;stroke:rgb(49,49,255);"/>
    <path d="M36.5603,46.5102L36.5603,53.6094L40.824,55.7865C41.407,56.0842 41.6068,56.7435 41.2702,57.2591C40.9336,57.7747 40.1881,57.9514 39.605,57.6537L36.5603,56.099L36.5603,61.0347C36.5603,61.7353 35.9181,62.3032 35.126,62.3032C34.3338,62.3032 33.6917,61.7353 33.6917,61.0347L33.6917,55.9547L30.3642,57.6537C29.7812,57.9514 29.0357,57.7747 28.6991,57.2591C28.3625,56.7435 28.5623,56.0842 29.1453,55.7865L33.6917,53.4651L33.6917,46.5903L32.1975,45.7439L26.3285,49.1324L26.5913,54.2303C26.625,54.8841 26.1539,55.3867 25.539,55.353C24.9242,55.3193 24.3985,54.762 24.3648,54.1083L24.1724,50.3772L19.773,52.9172C19.1663,53.2674 18.3534,52.9953 17.9573,52.3092C17.5612,51.6232 17.732,50.7831 18.3387,50.4328L22.6131,47.965L19.7444,46.1055C19.195,45.7494 18.9753,45.0155 19.2535,44.4662C19.5318,43.9169 20.2026,43.7602 20.7519,44.1163L24.7692,46.7202L30.8163,43.2289L30.8163,41.6465L24.8942,38.2274L20.6106,41.0039C20.0613,41.36 19.3904,41.2033 19.1122,40.654C18.834,40.1047 19.0537,39.3708 19.603,39.0147L22.7381,36.9826L18.3387,34.4426C17.732,34.0923 17.5612,33.2522 17.9573,32.5662C18.3534,31.8801 19.1663,31.608 19.773,31.9583L24.0474,34.4261L24.2234,31.0119C24.2571,30.3582 24.7829,29.8009 25.3977,29.7672C26.0125,29.7335 26.4836,30.2361 26.4499,30.8899L26.2035,35.6709L32.4115,39.2551L33.6917,38.5299L33.6917,31.6551L29.1453,29.3337C28.5623,29.036 28.3625,28.3767 28.6991,27.8611C29.0357,27.3455 29.7812,27.1688 30.3642,27.4665L33.6917,29.1655L33.6917,24.0855C33.6917,23.385 34.3338,22.817 35.126,22.817C35.9181,22.817 36.5603,23.385 36.5603,24.0855L36.5603,29.0212L39.605,27.4665C40.1881,27.1688 40.9336,27.3455 41.2702,27.8611C41.6068,28.3767 41.407,29.036 40.824,29.3337L36.5603,31.5108L36.5603,38.61L37.6991,39.2551L43.9071,35.6709L43.6607,30.8899C43.627,30.2361 44.0981,29.7335 44.7129,29.7672C45.3277,29.8009 45.8535,30.3582 45.8872,31.0119L46.0632,34.4261L50.3376,31.9583C50.9443,31.608 51.7572,31.8801 52.1533,32.5662C52.5494,33.2522 52.3786,34.0923 51.7719,34.4426L47.3725,36.9826L50.5076,39.0147C51.0569,39.3708 51.2766,40.1047 50.9984,40.654C50.7202,41.2033 50.0493,41.36 49.5,41.0039L45.2165,38.2274L39.2943,41.6465L39.2943,43.2289L45.3414,46.7202L49.3587,44.1163C49.908,43.7602 50.5789,43.9169 50.8571,44.4662C51.1353,45.0155 50.9156,45.7494 50.3663,46.1055L47.4975,47.965L51.7719,50.4328C52.3786,50.7831 52.5494,51.6232 52.1533,52.3092C51.7572,52.9953 50.9443,53.2674 50.3376,52.9172L45.9382,50.3772L45.7459,54.1083C45.7122,54.762 45.1864,55.3193 44.5716,55.353C43.9567,55.3867 43.4856,54.8841 43.5193,54.2303L43.7821,49.1324L37.9131,45.7439L36.5603,46.5102Z" style="fill:white;stroke-width:1px;stroke:rgb(191,191,191);"/>
    <path d="M184.341,11.782C185.424,6.08806 181.686,1.47224 175.992,1.47224L21.9493,1.47224C16.2554,1.47224 10.7615,6.08806 9.67841,11.782L1.65903,53.9396C0.575916,59.6335 4.3137,64.2493 10.0076,64.2493L164.051,64.2493C169.745,64.2493 175.239,59.6335 176.322,53.9396L184.341,11.782Z" style="fill:none;stroke-width:1.7px;stroke:rgb(49,49,255);"/>
    <path d="M61.3095,43.7086L73.1499,43.7086C75.484,43.7086 77.3484,43.9101 78.7432,44.3132C80.1379,44.7163 81.2652,45.2947 82.1249,46.0486C82.9846,46.8025 83.5734,47.6795 83.8913,48.6797C84.2092,49.6799 84.3098,50.7398 84.1931,51.8594C84.0101,53.6134 83.5545,54.9737 82.8262,55.9403C82.0979,56.9069 81.1425,57.7168 79.9602,58.3699C78.7778,59.023 77.5361,59.4578 76.2351,59.6742C74.4563,59.9728 72.8573,60.1221 71.4381,60.1221L59.5977,60.1221L61.3095,43.7086ZM68.8917,47.4257L67.9564,56.3938L69.9093,56.3938C71.5748,56.3938 72.7717,56.2762 73.4999,56.0411C74.2282,55.806 74.8223,55.3955 75.2822,54.8095C75.7421,54.2236 76.0405,53.2738 76.1775,51.9601C76.3589,50.221 76.0373,49.0305 75.2129,48.3886C74.3884,47.7467 72.9441,47.4257 70.8797,47.4257L68.8917,47.4257Z" style="fill:rgb(0,39,255);fill-rule:nonzero;"/>
    <path d="M89.2128,43.7086L110.571,43.7086L110.206,47.213L96.8347,47.213L96.5627,49.8217L108.966,49.8217L108.617,53.1693L96.2135,53.1693L95.8761,56.405L109.634,56.405L109.247,60.1221L87.501,60.1221L89.2128,43.7086Z" style="fill:rgb(0,39,255);fill-rule:nonzero;"/>
    <path d="M131.41,53.4156L138.254,54.7592C137.655,56.0057 136.808,57.0469 135.712,57.8829C134.616,58.7188 133.298,59.3496 131.758,59.775C130.219,60.2005 128.293,60.4132 125.983,60.4132C123.18,60.4132 120.916,60.1538 119.194,59.6351C117.471,59.1163 116.032,58.2038 114.878,56.8976C113.724,55.5914 113.254,53.9194 113.466,51.8818C113.75,49.1648 115.102,47.0768 117.524,45.6175C119.946,44.1583 123.233,43.4287 127.385,43.4287C130.634,43.4287 133.144,43.8467 134.916,44.6827C136.688,45.5186 137.935,46.8025 138.657,48.5341L131.516,49.5306C131.322,49.0305 131.102,48.6647 130.856,48.4334C130.451,48.0452 129.937,47.7467 129.314,47.5377C128.69,47.3287 127.98,47.2242 127.182,47.2242C125.376,47.2242 123.944,47.687 122.885,48.6125C122.087,49.2992 121.611,50.3777 121.457,51.8482C121.267,53.6694 121.571,54.9178 122.369,55.5933C123.166,56.2688 124.351,56.6065 125.922,56.6065C127.447,56.6065 128.628,56.3341 129.465,55.7892C130.301,55.2443 130.95,54.4531 131.41,53.4156Z" style="fill:rgb(0,39,255);fill-rule:nonzero;"/>
    <path d="M157.718,57.4126L148.639,57.4126L147.108,60.1221L138.962,60.1221L150.368,43.7086L159.059,43.7086L167.041,60.1221L158.702,60.1221L157.718,57.4126ZM156.416,53.8635L154.182,47.9631L150.734,53.8635L156.416,53.8635Z" style="fill:rgb(0,39,255);fill-rule:nonzero;"/>
    <path d="M34.3676,18.3525L31.4241,18.3525L30.6796,14.8816L25.3228,14.8816L23.7912,18.3525L20.9209,18.3525L28.0138,3.07199L30.875,3.07199L34.3676,18.3525ZM30.1268,12.307L28.9754,6.63676L26.4703,12.307L30.1268,12.307Z" style="fill:white;fill-rule:nonzero;"/>
    <path d="M35.7844,18.3525L37.6578,3.07199L40.2264,3.07199L38.3531,18.3525L35.7844,18.3525Z" style="fill:white;fill-rule:nonzero;"/>
    <path d="M42.1509,7.283L44.5185,7.283L44.3332,8.79438C45.3242,7.62002 46.4048,7.03284 47.5749,7.03284C48.1965,7.03284 48.7179,7.17877 49.1392,7.47062C49.5605,7.76247 49.8811,8.20373 50.1013,8.79438C50.6003,8.20373 51.1145,7.76247 51.6439,7.47062C52.1733,7.17877 52.7183,7.03284 53.279,7.03284C53.992,7.03284 54.5751,7.19788 55.0282,7.52795C55.4814,7.85802 55.7906,8.3427 55.956,8.982C56.0748,9.45452 56.0695,10.2189 55.94,11.2751L55.0724,18.3525L52.5037,18.3525L53.2793,12.0256C53.4139,10.9277 53.4125,10.2189 53.2749,9.89925C53.0884,9.48232 52.7483,9.27385 52.2546,9.27385C51.8951,9.27385 51.5415,9.39893 51.194,9.64909C50.8464,9.89925 50.5729,10.2658 50.3736,10.7487C50.1742,11.2317 50.0106,11.9943 49.8828,13.0367L49.2311,18.3525L46.6625,18.3525L47.4062,12.2862C47.5382,11.2091 47.5777,10.5142 47.5246,10.2015C47.4715,9.88883 47.3584,9.65604 47.1852,9.50316C47.0119,9.35029 46.7608,9.27385 46.4317,9.27385C46.0356,9.27385 45.6642,9.39546 45.3175,9.63867C44.9708,9.88188 44.7007,10.2328 44.5074,10.6914C44.314,11.15 44.1522,11.9109 44.0219,12.9741L43.3625,18.3525L40.7938,18.3525L42.1509,7.283Z" style="fill:white;fill-rule:nonzero;"/>
    <path d="M60.4946,10.6602L58.2224,10.1807C58.6156,9.11055 59.1637,8.31838 59.8666,7.80417C60.5695,7.28995 61.5517,7.03284 62.8132,7.03284C63.9589,7.03284 64.7931,7.18746 65.3159,7.49668C65.8386,7.8059 66.1851,8.19852 66.3553,8.67451C66.5254,9.15051 66.5326,10.0243 66.3767,11.296L65.9301,14.7148C65.8109,15.6877 65.764,16.4051 65.7897,16.8672C65.8153,17.3293 65.9085,17.8244 66.0692,18.3525L63.5279,18.3525C63.4848,18.158 63.4379,17.8696 63.3872,17.4874C63.3658,17.3137 63.3494,17.199 63.338,17.1434C62.8395,17.6299 62.3256,17.9947 61.796,18.2379C61.2665,18.4811 60.7184,18.6027 60.1516,18.6027C59.1522,18.6027 58.4024,18.2935 57.9023,17.675C57.4023,17.0566 57.2102,16.2748 57.326,15.3298C57.4027,14.7044 57.6021,14.1467 57.9242,13.6568C58.2463,13.167 58.6595,12.7917 59.1637,12.5311C59.6679,12.2705 60.3769,12.043 61.2904,11.8484C62.5225,11.5913 63.3837,11.3516 63.8742,11.1292L63.9099,10.8373C63.9789,10.2745 63.9063,9.87319 63.6919,9.63346C63.4775,9.39372 63.0321,9.27385 62.3557,9.27385C61.8986,9.27385 61.5295,9.37635 61.2484,9.58134C60.9674,9.78633 60.7161,10.1459 60.4946,10.6602ZM63.6403,13.0367C63.2959,13.1617 62.7565,13.3111 62.0222,13.4849C61.2879,13.6586 60.8008,13.8288 60.561,13.9956C60.1926,14.2666 59.9829,14.6106 59.9317,15.0275C59.8815,15.4375 59.9721,15.7919 60.2036,16.0907C60.4351,16.3895 60.7581,16.5389 61.1725,16.5389C61.6356,16.5389 62.0988,16.3652 62.5618,16.0177C62.905,15.7537 63.1488,15.4305 63.2931,15.0484C63.3908,14.7982 63.4827,14.3222 63.5688,13.6204L63.6403,13.0367Z" style="fill:white;fill-rule:nonzero;"/>
    <path d="M77.4643,10.5559L74.8683,11.0771C74.8536,10.5003 74.7134,10.066 74.4475,9.77417C74.1816,9.48232 73.808,9.33639 73.3265,9.33639C72.6867,9.33639 72.1454,9.58829 71.7028,10.0921C71.2601,10.5959 70.9664,11.4384 70.8216,12.6197C70.6605,13.9331 70.7403,14.8607 71.0608,15.4027C71.3814,15.9448 71.8677,16.2158 72.5197,16.2158C73.0073,16.2158 73.4258,16.0577 73.7754,15.7415C74.1249,15.4253 74.411,14.8816 74.6335,14.1103L77.0964,14.6002C76.6725,15.9204 76.0475,16.9176 75.2214,17.5916C74.3953,18.2657 73.3576,18.6027 72.1083,18.6027C70.6883,18.6027 69.619,18.092 68.9002,17.0705C68.1814,16.049 67.9327,14.6349 68.1542,12.8282C68.3782,11.0006 68.9762,9.57786 69.9481,8.55986C70.92,7.54185 72.1281,7.03284 73.5724,7.03284C74.7546,7.03284 75.6591,7.32296 76.2857,7.90319C76.9124,8.48342 77.3052,9.36766 77.4643,10.5559Z" style="fill:white;fill-rule:nonzero;"/>
    <path d="M84.5092,14.8295L87.0087,15.3194C86.5484,16.3895 85.929,17.2042 85.1505,17.7636C84.372,18.323 83.4494,18.6027 82.383,18.6027C80.6949,18.6027 79.5227,17.9738 78.8664,16.7161C78.35,15.7085 78.186,14.4369 78.3742,12.9012C78.5991,11.0667 79.1958,9.62998 80.1641,8.59113C81.1325,7.55227 82.2596,7.03284 83.5454,7.03284C84.9897,7.03284 86.0627,7.57659 86.7642,8.66409C87.4658,9.75159 87.6607,11.4176 87.349,13.6621L80.9136,13.6621C80.8254,14.5307 80.9498,15.2064 81.2867,15.6894C81.6236,16.1723 82.0876,16.4138 82.6787,16.4138C83.081,16.4138 83.4345,16.2887 83.7394,16.0386C84.0443,15.7884 84.3009,15.3854 84.5092,14.8295ZM85.0184,11.8693C85.1041,11.0215 84.9911,10.377 84.6796,9.93573C84.368,9.49448 83.9502,9.27385 83.4261,9.27385C82.8654,9.27385 82.3737,9.50664 81.951,9.97221C81.5283,10.4378 81.271,11.0701 81.1791,11.8693L85.0184,11.8693Z" style="fill:white;fill-rule:nonzero;"/>
    <path d="M97.6977,18.3525L95.129,18.3525L95.8216,12.7031C95.9681,11.5079 96.0081,10.7349 95.9414,10.3839C95.8747,10.033 95.7299,9.76027 95.5069,9.5657C95.284,9.37114 94.9988,9.27385 94.6515,9.27385C94.2066,9.27385 93.7904,9.41283 93.4029,9.69078C93.0153,9.96874 92.7279,10.337 92.5407,10.7957C92.3534,11.2543 92.184,12.102 92.0323,13.3389L91.4177,18.3525L88.849,18.3525L90.2061,7.283L92.592,7.283L92.3926,8.90904C93.393,7.65824 94.5362,7.03284 95.822,7.03284C96.3888,7.03284 96.8925,7.14924 97.3332,7.38202C97.7739,7.61481 98.0925,7.91188 98.2889,8.27322C98.4853,8.63456 98.6027,9.04454 98.6409,9.50316C98.6791,9.96179 98.6459,10.6185 98.5411,11.4732L97.6977,18.3525Z" style="fill:white;fill-rule:nonzero;"/>
    <path d="M103.166,10.6602L100.893,10.1807C101.287,9.11055 101.835,8.31838 102.538,7.80417C103.241,7.28995 104.223,7.03284 105.484,7.03284C106.63,7.03284 107.464,7.18746 107.987,7.49668C108.51,7.8059 108.856,8.19852 109.026,8.67451C109.196,9.15051 109.204,10.0243 109.048,11.296L108.601,14.7148C108.482,15.6877 108.435,16.4051 108.461,16.8672C108.486,17.3293 108.58,17.8244 108.74,18.3525L106.199,18.3525C106.156,18.158 106.109,17.8696 106.058,17.4874C106.037,17.3137 106.02,17.199 106.009,17.1434C105.511,17.6299 104.997,17.9947 104.467,18.2379C103.938,18.4811 103.389,18.6027 102.823,18.6027C101.823,18.6027 101.073,18.2935 100.573,17.675C100.073,17.0566 99.8812,16.2748 99.9971,15.3298C100.074,14.7044 100.273,14.1467 100.595,13.6568C100.917,13.167 101.331,12.7917 101.835,12.5311C102.339,12.2705 103.048,12.043 103.962,11.8484C105.194,11.5913 106.055,11.3516 106.545,11.1292L106.581,10.8373C106.65,10.2745 106.577,9.87319 106.363,9.63346C106.149,9.39372 105.703,9.27385 105.027,9.27385C104.57,9.27385 104.201,9.37635 103.919,9.58134C103.638,9.78633 103.387,10.1459 103.166,10.6602ZM106.311,13.0367C105.967,13.1617 105.428,13.3111 104.693,13.4849C103.959,13.6586 103.472,13.8288 103.232,13.9956C102.864,14.2666 102.654,14.6106 102.603,15.0275C102.553,15.4375 102.643,15.7919 102.875,16.0907C103.106,16.3895 103.429,16.5389 103.844,16.5389C104.307,16.5389 104.77,16.3652 105.233,16.0177C105.576,15.7537 105.82,15.4305 105.964,15.0484C106.062,14.7982 106.154,14.3222 106.24,13.6204L106.311,13.0367Z" style="fill:white;fill-rule:nonzero;"/>
    <path d="M111.88,7.283L114.247,7.283L114.062,8.79438C115.053,7.62002 116.134,7.03284 117.304,7.03284C117.925,7.03284 118.447,7.17877 118.868,7.47062C119.289,7.76247 119.61,8.20373 119.83,8.79438C120.329,8.20373 120.843,7.76247 121.373,7.47062C121.902,7.17877 122.447,7.03284 123.008,7.03284C123.721,7.03284 124.304,7.19788 124.757,7.52795C125.21,7.85802 125.52,8.3427 125.685,8.982C125.804,9.45452 125.798,10.2189 125.669,11.2751L124.801,18.3525L122.233,18.3525L123.008,12.0256C123.143,10.9277 123.141,10.2189 123.004,9.89925C122.817,9.48232 122.477,9.27385 121.984,9.27385C121.624,9.27385 121.27,9.39893 120.923,9.64909C120.575,9.89925 120.302,10.2658 120.103,10.7487C119.903,11.2317 119.74,11.9943 119.612,13.0367L118.96,18.3525L116.391,18.3525L117.135,12.2862C117.267,11.2091 117.307,10.5142 117.254,10.2015C117.201,9.88883 117.087,9.65604 116.914,9.50316C116.741,9.35029 116.49,9.27385 116.161,9.27385C115.765,9.27385 115.393,9.39546 115.046,9.63867C114.7,9.88188 114.43,10.2328 114.236,10.6914C114.043,11.15 113.881,11.9109 113.751,12.9741L113.091,18.3525L110.523,18.3525L111.88,7.283Z" style="fill:white;fill-rule:nonzero;"/>
    <path d="M128.902,5.78205L129.234,3.07199L131.803,3.07199L131.471,5.78205L128.902,5.78205ZM127.361,18.3525L128.718,7.283L131.287,7.283L129.93,18.3525L127.361,18.3525Z" style="fill:white;fill-rule:nonzero;"/>
    <path d="M138.616,14.8295L141.115,15.3194C140.655,16.3895 140.036,17.2042 139.257,17.7636C138.479,18.323 137.556,18.6027 136.49,18.6027C134.802,18.6027 133.629,17.9738 132.973,16.7161C132.457,15.7085 132.293,14.4369 132.481,12.9012C132.706,11.0667 133.302,9.62998 134.271,8.59113C135.239,7.55227 136.366,7.03284 137.652,7.03284C139.096,7.03284 140.169,7.57659 140.871,8.66409C141.572,9.75159 141.767,11.4176 141.456,13.6621L135.02,13.6621C134.932,14.5307 135.056,15.2064 135.393,15.6894C135.73,16.1723 136.194,16.4138 136.785,16.4138C137.188,16.4138 137.541,16.2887 137.846,16.0386C138.151,15.7884 138.408,15.3854 138.616,14.8295ZM139.125,11.8693C139.211,11.0215 139.098,10.377 138.786,9.93573C138.475,9.49448 138.057,9.27385 137.533,9.27385C136.972,9.27385 136.48,9.50664 136.058,9.97221C135.635,10.4378 135.378,11.0701 135.286,11.8693L139.125,11.8693Z" style="fill:white;fill-rule:nonzero;"/>
    <path d="M151.804,18.3525L149.236,18.3525L149.928,12.7031C150.075,11.5079 150.115,10.7349 150.048,10.3839C149.981,10.033 149.837,9.76027 149.614,9.5657C149.391,9.37114 149.106,9.27385 148.758,9.27385C148.313,9.27385 147.897,9.41283 147.51,9.69078C147.122,9.96874 146.835,10.337 146.647,10.7957C146.46,11.2543 146.291,12.102 146.139,13.3389L145.524,18.3525L142.956,18.3525L144.313,7.283L146.699,7.283L146.499,8.90904C147.5,7.65824 148.643,7.03284 149.929,7.03284C150.495,7.03284 150.999,7.14924 151.44,7.38202C151.881,7.61481 152.199,7.91188 152.396,8.27322C152.592,8.63456 152.709,9.04454 152.748,9.50316C152.786,9.96179 152.753,10.6185 152.648,11.4732L151.804,18.3525Z" style="fill:white;fill-rule:nonzero;"/>
    <path d="M160.218,7.283L159.932,9.61782L158.177,9.61782L157.63,14.079C157.519,14.9823 157.472,15.5087 157.487,15.6581C157.502,15.8075 157.563,15.9309 157.67,16.0281C157.777,16.1254 157.916,16.1741 158.086,16.1741C158.324,16.1741 158.68,16.0803 159.154,15.8926L159.095,18.1649C158.462,18.4568 157.767,18.6027 157.012,18.6027C156.548,18.6027 156.142,18.5141 155.792,18.3369C155.442,18.1597 155.197,17.9304 155.058,17.649C154.919,17.3675 154.845,16.9871 154.837,16.5076C154.824,16.1671 154.881,15.4792 155.008,14.4438L155.599,9.61782L154.42,9.61782L154.706,7.283L155.886,7.283L156.155,5.08369L158.943,3.37427L158.463,7.283L160.218,7.283Z" style="fill:white;fill-rule:nonzero;"/>
    <path d="M160.747,12.6614C160.867,11.6886 161.192,10.747 161.724,9.83671C162.257,8.92641 162.937,8.23152 163.767,7.75205C164.597,7.27258 165.487,7.03284 166.438,7.03284C167.906,7.03284 169.043,7.57659 169.848,8.66409C170.654,9.75159 170.954,11.1257 170.751,12.7865C170.546,14.4612 169.902,15.8492 168.819,16.9506C167.736,18.052 166.476,18.6027 165.038,18.6027C164.148,18.6027 163.327,18.3734 162.576,17.9148C161.825,17.4561 161.293,16.7838 160.981,15.8979C160.67,15.0119 160.592,13.9331 160.747,12.6614ZM163.361,12.8178C163.226,13.9157 163.352,14.7565 163.737,15.3402C164.123,15.9239 164.651,16.2158 165.321,16.2158C165.991,16.2158 166.589,15.9239 167.115,15.3402C167.641,14.7565 167.971,13.9087 168.108,12.7969C168.241,11.7129 168.116,10.879 167.733,10.2953C167.351,9.71163 166.825,9.41978 166.154,9.41978C165.484,9.41978 164.884,9.71163 164.356,10.2953C163.827,10.879 163.496,11.7199 163.361,12.8178Z" style="fill:white;fill-rule:nonzero;"/>
    <path d="M121.738,24.359L134.283,24.359L133.955,27.0344L126.507,27.0344L126.24,29.2088L132.602,29.2088L132.294,31.7228L125.932,31.7228L125.308,36.8103L120.212,36.8103L121.738,24.359Z" style="fill:white;fill-rule:nonzero;"/>
    <path d="M135.554,27.7904L139.821,27.7904L139.64,29.2682C140.129,28.6284 140.607,28.1881 141.073,27.9475C141.54,27.7068 142.094,27.5865 142.736,27.5865C143.408,27.5865 144.124,27.7451 144.884,28.0621L143.171,30.5252C142.654,30.3554 142.239,30.2704 141.925,30.2704C141.328,30.2704 140.842,30.4573 140.468,30.831C139.933,31.3576 139.577,32.3428 139.4,33.7867L139.029,36.8103L134.448,36.8103L135.554,27.7904Z" style="fill:white;fill-rule:nonzero;"/>
    <path d="M145.859,27.7904L150.417,27.7904L149.312,36.8103L144.753,36.8103L145.859,27.7904ZM148.467,24.1467L152.387,24.1467L148.458,26.6862L146.274,26.6862L148.467,24.1467Z" style="fill:white;fill-rule:nonzero;"/>
    <path d="M152.213,32.3258C152.382,30.9499 153.133,29.816 154.467,28.9242C155.801,28.0324 157.51,27.5865 159.593,27.5865C161.975,27.5865 163.711,28.1103 164.799,29.1578C165.674,30.0015 166.036,31.0405 165.885,32.2749C165.715,33.6621 164.969,34.7988 163.646,35.685C162.324,36.5711 160.592,37.0142 158.449,37.0142C156.537,37.0142 155.037,36.6461 153.947,35.91C152.61,34.9984 152.032,33.8037 152.213,32.3258ZM156.784,32.3173C156.686,33.1214 156.828,33.7159 157.21,34.101C157.592,34.486 158.108,34.6785 158.758,34.6785C159.415,34.6785 159.977,34.4888 160.446,34.1094C160.914,33.7301 161.2,33.1214 161.302,32.2834C161.398,31.502 161.257,30.9202 160.878,30.538C160.499,30.1558 159.996,29.9647 159.369,29.9647C158.704,29.9647 158.132,30.1586 157.651,30.5465C157.171,30.9343 156.882,31.5246 156.784,32.3173Z" style="fill:white;fill-rule:nonzero;"/>
    <path d="M102.163,29.339L104.368,29.6494C103.997,30.3277 103.478,30.8441 102.813,31.1986C102.147,31.5531 101.347,31.7304 100.412,31.7304C98.933,31.7304 97.8871,31.3318 97.2745,30.5347C96.7921,29.8961 96.6105,29.0901 96.7299,28.1168C96.8724,26.9541 97.3525,26.0436 98.1702,25.3851C98.9879,24.7267 99.9601,24.3975 101.087,24.3975C102.353,24.3975 103.309,24.7421 103.956,25.4314C104.603,26.1206 104.824,27.1765 104.617,28.5991L98.9778,28.5991C98.9263,29.1496 99.0554,29.5779 99.365,29.884C99.6746,30.1901 100.088,30.3431 100.606,30.3431C100.959,30.3431 101.265,30.2638 101.525,30.1053C101.784,29.9467 101.997,29.6913 102.163,29.339ZM102.522,27.4628C102.571,26.9255 102.453,26.517 102.167,26.2373C101.881,25.9577 101.508,25.8179 101.049,25.8179C100.558,25.8179 100.134,25.9654 99.7771,26.2605C99.4205,26.5555 99.2139,26.9563 99.1571,27.4628L102.522,27.4628Z" style="fill:white;fill-rule:nonzero;"/>
    <path d="M113.825,31.5718L111.574,31.5718L112.013,27.9913C112.106,27.2338 112.118,26.7438 112.049,26.5214C111.98,26.299 111.845,26.1261 111.644,26.0028C111.443,25.8795 111.19,25.8179 110.886,25.8179C110.496,25.8179 110.135,25.9059 109.804,26.0821C109.473,26.2583 109.232,26.4917 109.081,26.7824C108.931,27.073 108.808,27.6103 108.712,28.3943L108.322,31.5718L106.071,31.5718L106.931,24.5561L109.022,24.5561L108.896,25.5866C109.735,24.7939 110.718,24.3975 111.845,24.3975C112.342,24.3975 112.787,24.4713 113.18,24.6188C113.573,24.7664 113.861,24.9546 114.044,25.1837C114.227,25.4127 114.342,25.6725 114.389,25.9632C114.436,26.2539 114.426,26.6701 114.36,27.2118L113.825,31.5718Z" style="fill:white;fill-rule:nonzero;"/>
</svg>
